<?xml version="1.0" encoding="UTF-8"?>
<svg xmlns="http://www.w3.org/2000/svg" xmlns:xlink="http://www.w3.org/1999/xlink" width="123px" height="27px" viewBox="0 0 122 27" version="1.1">
<g id="surface1">
<path style=" stroke:none;fill-rule:evenodd;fill:rgb(14.509805%,29.019609%,64.705884%);fill-opacity:1;" d="M 18.925781 25.410156 L 19.804688 26.25 L 20.527344 25.410156 L 24.175781 25.410156 L 24.972656 24.246094 L 19.398438 24.246094 L 19.238281 24.078125 L 17.511719 24.078125 L 17.40625 24.246094 L 0.78125 24.246094 L 0 25.410156 Z M 18.464844 23.027344 L 16.175781 23.027344 L 15.574219 22.445312 L 1.9375 22.445312 L 2.722656 21.269531 L 14.394531 21.269531 L 14.441406 21.011719 L 16.742188 21.011719 L 16.800781 21.269531 L 26.914062 21.269531 L 26.113281 22.445312 L 18.003906 22.445312 C 18.003906 22.445312 18.058594 22.742188 18.464844 23.027344 M 15.398438 19.488281 L 28.136719 19.488281 L 28.929688 18.320312 L 15.378906 18.320312 L 15.5625 18.042969 L 11.515625 18.042969 L 11.328125 18.320312 L 4.734375 18.320312 L 3.949219 19.488281 L 12.578125 19.488281 L 13.121094 19.992188 L 15.816406 19.992188 Z M 16.917969 16.398438 L 30.222656 16.398438 L 31.015625 15.230469 L 17.722656 15.230469 L 17.625 14.980469 L 13.636719 14.980469 L 13.484375 15.230469 L 6.824219 15.230469 L 6.039062 16.398438 L 12.210938 16.398438 C 12.210938 16.398438 12.621094 16.496094 12.332031 16.894531 L 16.472656 16.894531 Z M 19.089844 13.429688 L 32.191406 13.429688 L 32.984375 12.261719 L 20.21875 12.261719 L 20.144531 12.015625 L 15.738281 12.015625 L 15.574219 12.261719 L 8.796875 12.261719 L 8.003906 13.429688 L 14.339844 13.429688 C 14.339844 13.429688 14.664062 13.578125 14.4375 13.886719 L 18.898438 13.886719 C 18.898438 13.886719 18.902344 13.699219 19.089844 13.429688 M 21.074219 10.921875 L 16.550781 10.921875 C 16.800781 10.519531 16.199219 10.453125 16.199219 10.453125 L 9.945312 10.453125 L 10.726562 9.285156 L 17.671875 9.285156 L 17.847656 9.015625 L 22.402344 9.015625 L 22.597656 9.285156 L 34.921875 9.285156 L 34.125 10.457031 L 21.347656 10.457031 C 21.347656 10.457031 21.152344 10.660156 21.078125 10.925781 M 24.25 7.519531 L 36.164062 7.519531 L 36.953125 6.347656 L 25.269531 6.347656 L 24.972656 5.84375 L 20.089844 5.84375 L 19.714844 6.347656 L 12.769531 6.347656 L 11.984375 7.519531 L 18.160156 7.519531 C 18.160156 7.519531 18.898438 7.523438 18.5625 8 L 24.066406 8 C 24.066406 8 24.089844 7.839844 24.25 7.519531 M 25.4375 3.40625 L 38.890625 3.40625 L 38.09375 4.574219 L 26.617188 4.574219 C 26.292969 4.574219 26.074219 5.066406 26.074219 5.066406 L 20.632812 5.066406 C 20.90625 4.597656 20.304688 4.574219 20.304688 4.574219 L 13.917969 4.574219 L 14.699219 3.40625 L 24.753906 3.40625 L 25.175781 3.027344 L 26.183594 1.699219 L 25.945312 1.699219 L 26.847656 0.5625 L 27.535156 0.5625 L 26.699219 1.699219 L 26.496094 1.699219 L 25.394531 3.074219 Z M 46.738281 3.460938 L 43.578125 8.09375 L 40.996094 8.09375 L 38.816406 11.253906 L 41.527344 11.253906 L 33.804688 22.578125 C 33.804688 22.578125 33.203125 23.476562 33.203125 24.769531 C 33.203125 26.054688 34.859375 26.25 34.859375 26.25 L 40.734375 26.25 L 42.585938 22.96875 L 39.675781 22.96875 C 39.675781 22.96875 38.554688 22.835938 39.078125 21.941406 C 39.609375 21.035156 46.371094 11.257812 46.371094 11.257812 L 49.777344 11.257812 L 51.648438 8.09375 L 48.523438 8.09375 L 51.660156 3.464844 Z M 65.070312 26.25 L 80.015625 3.460938 L 75.015625 3.460938 L 60.082031 26.25 Z M 107.058594 26.25 L 122 3.460938 L 117.007812 3.460938 L 102.070312 26.25 Z M 52.816406 15.660156 L 60.738281 15.660156 C 60.738281 15.660156 61.625 14.179688 61.890625 12.953125 C 62.160156 11.730469 60.710938 11.40625 59.089844 11.40625 C 57.476562 11.40625 54.996094 11.574219 52.816406 15.660156 M 62.78125 18.847656 L 50.765625 18.847656 C 50.765625 18.847656 49.539062 20.308594 49.402344 21.550781 C 49.402344 21.550781 49.402344 22.578125 50.675781 22.578125 L 59.917969 22.578125 L 57.5 26.25 L 49.972656 26.25 C 49.972656 26.25 44.253906 26.25 44.253906 22.96875 C 44.253906 22.96875 44.203125 20.515625 48.394531 14.824219 C 52.585938 9.121094 55.457031 8.902344 60.277344 8.902344 C 65.09375 8.902344 66.402344 10.394531 66.25 11.632812 C 66.085938 13.046875 65.917969 13.792969 62.78125 18.847656 M 94.371094 15.660156 L 102.292969 15.660156 C 102.292969 15.660156 103.179688 14.179688 103.445312 12.953125 C 103.714844 11.730469 102.257812 11.40625 100.640625 11.40625 C 99.023438 11.40625 96.542969 11.574219 94.371094 15.660156 M 104.332031 18.847656 L 92.316406 18.847656 C 92.316406 18.847656 91.089844 20.308594 90.957031 21.550781 C 90.957031 21.550781 90.957031 22.578125 92.226562 22.578125 L 101.480469 22.578125 L 99.054688 26.25 L 91.527344 26.25 C 91.527344 26.25 85.808594 26.25 85.808594 22.96875 C 85.808594 22.96875 85.75 20.515625 89.949219 14.824219 C 94.140625 9.121094 97.007812 8.902344 101.828125 8.902344 C 106.648438 8.902344 107.945312 10.394531 107.808594 11.632812 C 107.640625 13.046875 107.46875 13.792969 104.332031 18.847656 M 75.117188 21.550781 C 75.117188 21.550781 75.117188 22.578125 76.382812 22.578125 L 84.445312 22.578125 L 82.023438 26.25 L 75.6875 26.25 C 75.6875 26.25 69.519531 26.4375 69.972656 22.964844 C 69.972656 22.964844 69.90625 20.515625 74.101562 14.824219 C 74.101562 14.824219 77.898438 8.902344 86.089844 8.902344 L 91.503906 8.902344 L 89.058594 12.535156 L 84.699219 12.535156 C 84.304688 12.535156 81.136719 12.855469 78.300781 15.949219 C 75.464844 19.039062 75.234375 20.515625 75.117188 21.550781 "/>
</g>
</svg>
