<?xml version="1.0" encoding="UTF-8"?>
<svg xmlns="http://www.w3.org/2000/svg" xmlns:xlink="http://www.w3.org/1999/xlink" width="80px" height="80px" viewBox="0 0 80 42" version="1.1">
<g id="surface1">
<path style=" stroke:none;fill-rule:nonzero;fill:rgb(87.843138%,65.098041%,29.411766%);fill-opacity:1;" d="M 31.78125 6.886719 L 31.78125 0.90625 C 31.78125 0.363281 32.363281 0 32.875 0.289062 L 38.085938 3.296875 C 38.558594 3.585938 38.558594 4.277344 38.085938 4.53125 L 32.875 7.5 C 32.363281 7.792969 31.78125 7.429688 31.78125 6.886719 Z M 31.78125 6.886719 "/>
<path style=" stroke:none;fill-rule:nonzero;fill:rgb(53.333336%,36.078432%,60.784316%);fill-opacity:1;" d="M 31.78125 14.675781 L 31.78125 8.695312 C 31.78125 8.152344 32.363281 7.792969 32.875 8.082031 L 38.085938 11.089844 C 38.558594 11.378906 38.558594 12.066406 38.085938 12.320312 L 32.875 15.292969 C 32.363281 15.582031 31.78125 15.21875 31.78125 14.675781 Z M 31.78125 14.675781 "/>
<path style=" stroke:none;fill-rule:nonzero;fill:rgb(74.901962%,17.254902%,40.784314%);fill-opacity:1;" d="M 31.78125 22.46875 L 31.78125 16.488281 C 31.78125 15.945312 32.363281 15.582031 32.875 15.871094 L 38.085938 18.878906 C 38.558594 19.171875 38.558594 19.859375 38.085938 20.113281 L 32.875 23.082031 C 32.363281 23.375 31.78125 23.011719 31.78125 22.46875 Z M 31.78125 22.46875 "/>
<path style=" stroke:none;fill-rule:nonzero;fill:rgb(17.254902%,63.137257%,76.47059%);fill-opacity:1;" d="M 38.632812 10.582031 L 38.632812 4.601562 C 38.632812 4.058594 39.214844 3.695312 39.726562 3.984375 L 44.9375 6.992188 C 45.410156 7.285156 45.410156 7.972656 44.9375 8.226562 L 39.726562 11.199219 C 39.214844 11.488281 38.632812 11.160156 38.632812 10.582031 Z M 38.632812 10.582031 "/>
<path style=" stroke:none;fill-rule:nonzero;fill:rgb(75.686276%,19.607843%,27.058825%);fill-opacity:1;" d="M 45.921875 14.675781 L 45.921875 8.695312 C 45.921875 8.152344 46.503906 7.792969 47.015625 8.082031 L 52.226562 11.089844 C 52.699219 11.378906 52.699219 12.066406 52.226562 12.320312 L 47.015625 15.292969 C 46.503906 15.582031 45.921875 15.21875 45.921875 14.675781 Z M 45.921875 14.675781 "/>
<path style=" stroke:none;fill-rule:nonzero;fill:rgb(67.058825%,76.078433%,21.960784%);fill-opacity:1;" d="M 38.632812 18.554688 L 38.632812 12.574219 C 38.632812 12.03125 39.214844 11.667969 39.726562 11.957031 L 44.9375 14.964844 C 45.410156 15.257812 45.410156 15.945312 44.9375 16.199219 L 39.726562 19.171875 C 39.214844 19.460938 38.632812 19.097656 38.632812 18.554688 Z M 38.632812 18.554688 "/>
<path style=" stroke:none;fill-rule:nonzero;fill:rgb(87.843138%,65.098041%,29.411766%);fill-opacity:1;" d="M 59.625 30.875 C 61.082031 30.839844 60.863281 31.851562 60.828125 32.324219 C 56.78125 32.324219 55.433594 33.628906 55.433594 35.441406 C 55.433594 37.253906 56.890625 37.976562 58.203125 37.976562 C 59.480469 37.976562 59.917969 37.761719 61.191406 36.925781 C 61.449219 38.015625 62.503906 37.976562 62.503906 37.976562 L 63.925781 36.5625 C 63.378906 36.164062 63.160156 35.949219 63.160156 35.222656 L 63.160156 32.070312 C 63.160156 30.113281 62.101562 29.136719 59.808594 29.136719 C 57.511719 29.136719 55.617188 30.148438 55.617188 30.148438 L 56.34375 31.78125 C 56.746094 31.601562 58.167969 30.910156 59.625 30.875 Z M 60.828125 33.664062 L 60.828125 35.804688 C 60.828125 35.804688 59.917969 36.457031 59.042969 36.457031 C 58.167969 36.457031 57.765625 35.875 57.765625 35.296875 C 57.765625 34.714844 58.167969 33.59375 60.828125 33.664062 Z M 60.828125 33.664062 "/>
<path style=" stroke:none;fill-rule:nonzero;fill:rgb(34.509805%,34.509805%,34.901962%);fill-opacity:1;" d="M 8.640625 26.488281 L 17.640625 26.488281 L 17.640625 27.578125 C 17.640625 28.15625 17.421875 28.59375 16.695312 28.59375 L 14.398438 28.59375 L 14.398438 37.796875 L 11.917969 37.796875 L 11.917969 28.59375 L 7.949219 28.59375 C 7.910156 28.59375 8.347656 27.503906 8.640625 26.488281 Z M 15.382812 33.554688 C 15.382812 36.527344 17.351562 38.050781 19.902344 38.050781 C 22.453125 38.050781 24.203125 36.5625 24.203125 33.375 C 24.203125 30.1875 21.976562 29.0625 19.902344 29.0625 C 17.421875 29.0625 15.382812 30.546875 15.382812 33.554688 Z M 19.792969 30.910156 C 20.738281 30.910156 21.832031 31.417969 21.832031 33.449219 C 21.832031 35.476562 20.996094 36.203125 19.792969 36.203125 C 18.589844 36.203125 17.859375 35.296875 17.859375 33.554688 C 17.859375 31.816406 18.589844 30.910156 19.792969 30.910156 Z M 29.8125 31.199219 L 29.8125 29.28125 L 27.808594 29.28125 L 27.808594 26.382812 L 25.476562 27.070312 L 25.476562 29.316406 L 24.054688 29.316406 L 24.054688 31.238281 L 25.476562 31.238281 L 25.476562 35.511719 C 25.476562 38.375 27.628906 37.976562 28.210938 37.976562 C 28.9375 37.976562 29.8125 37.796875 29.8125 37.796875 L 29.8125 36.019531 L 28.5 36.019531 C 28.101562 36.019531 27.808594 35.695312 27.808594 35.332031 L 27.808594 31.238281 L 29.8125 31.238281 Z M 34.808594 30.839844 C 36.265625 30.800781 36.046875 31.816406 36.007812 32.289062 C 31.964844 32.289062 30.617188 33.59375 30.617188 35.40625 C 30.617188 37.214844 32.074219 37.941406 33.386719 37.941406 C 34.660156 37.941406 35.097656 37.722656 36.375 36.890625 C 36.628906 37.976562 37.6875 37.941406 37.6875 37.941406 L 39.105469 36.527344 C 38.558594 36.128906 38.339844 35.910156 38.339844 35.1875 L 38.339844 32.035156 C 38.339844 30.078125 37.285156 29.097656 34.988281 29.097656 C 32.691406 29.097656 30.796875 30.113281 30.796875 30.113281 L 31.527344 31.746094 C 31.964844 31.5625 33.347656 30.875 34.808594 30.839844 Z M 36.046875 33.628906 L 36.046875 35.765625 C 36.046875 35.765625 35.132812 36.417969 34.261719 36.417969 C 33.386719 36.417969 32.984375 35.839844 32.984375 35.257812 C 32.984375 34.679688 33.386719 33.554688 36.046875 33.628906 Z M 39.214844 35.804688 C 39.214844 36.3125 39.214844 37.253906 40.019531 37.6875 C 40.820312 38.121094 42.789062 37.761719 42.789062 37.761719 L 42.789062 35.949219 L 42.09375 35.949219 C 41.804688 35.949219 41.550781 35.695312 41.550781 35.40625 L 41.550781 26.742188 L 39.179688 25.875 C 39.214844 25.875 39.214844 35.257812 39.214844 35.804688 Z M 39.214844 35.804688 "/>
<path style=" stroke:none;fill-rule:nonzero;fill:rgb(67.058825%,76.078433%,22.352941%);fill-opacity:1;" d="M 51.5 35.804688 C 51.5 36.3125 51.5 37.253906 52.300781 37.6875 C 53.101562 38.121094 55.25 37.761719 55.25 37.761719 L 55.25 35.949219 L 54.378906 35.949219 C 54.085938 35.949219 53.832031 35.695312 53.832031 35.40625 L 53.832031 26.742188 L 51.460938 25.875 C 51.5 25.875 51.5 35.257812 51.5 35.804688 Z M 51.5 35.804688 "/>
<path style=" stroke:none;fill-rule:nonzero;fill:rgb(17.254902%,63.137257%,76.47059%);fill-opacity:1;" d="M 42.824219 29.28125 L 44.9375 29.28125 L 45.046875 30.1875 C 45.046875 30.1875 45.996094 28.59375 48.617188 29.171875 C 51.242188 29.75 51.316406 33.304688 51.0625 34.753906 C 50.804688 36.203125 49.859375 37.796875 48 37.941406 C 46.140625 38.085938 45.777344 37.433594 45.230469 36.964844 L 45.230469 39.535156 L 42.859375 41.527344 L 42.859375 29.28125 Z M 45.191406 34.535156 C 45.191406 35.1875 45.519531 36.238281 46.90625 36.238281 C 48.292969 36.238281 48.617188 34.933594 48.617188 33.304688 C 48.617188 31.671875 48.035156 30.984375 46.871094 30.984375 C 45.703125 30.984375 45.191406 31.707031 45.191406 32.359375 Z M 45.191406 34.535156 "/>
<path style=" stroke:none;fill-rule:nonzero;fill:rgb(75.686276%,19.607843%,27.058825%);fill-opacity:1;" d="M 62.941406 29.316406 L 65.601562 29.316406 L 67.570312 35.078125 L 69.539062 29.316406 L 72.089844 29.316406 C 72.089844 29.316406 68.734375 37.722656 68.226562 39.101562 C 67.714844 40.476562 67.023438 42 63.5625 41.527344 L 63.5625 39.535156 C 63.5625 39.679688 64.691406 39.644531 64.800781 39.609375 C 65.238281 39.535156 65.527344 39.355469 65.785156 38.957031 C 65.894531 38.738281 66.074219 38.375 66.148438 38.160156 C 66.183594 38.085938 66.367188 37.761719 66.367188 37.652344 Z M 62.941406 29.316406 "/>
</g>
</svg>
